<svg xmlns="http://www.w3.org/2000/svg" xmlns:xlink="http://www.w3.org/1999/xlink" width="500" zoomAndPan="magnify" viewBox="0 0 375 374.999991" height="500" preserveAspectRatio="xMidYMid meet" version="1.0"><defs><g/><clipPath id="562f93338d"><path d="M 10.527344 9.242188 L 366.777344 9.242188 L 366.777344 365.492188 L 10.527344 365.492188 Z M 10.527344 9.242188 " clip-rule="nonzero"/></clipPath></defs><g clip-path="url(#562f93338d)"><path fill="#7ed957" d="M 366.777344 187.367188 C 366.777344 190.28125 366.707031 193.195312 366.5625 196.105469 C 366.417969 199.015625 366.207031 201.921875 365.917969 204.824219 C 365.632812 207.726562 365.277344 210.617188 364.847656 213.5 C 364.421875 216.386719 363.921875 219.257812 363.355469 222.117188 C 362.785156 224.976562 362.148438 227.820312 361.4375 230.644531 C 360.730469 233.472656 359.953125 236.28125 359.109375 239.074219 C 358.261719 241.863281 357.347656 244.628906 356.363281 247.375 C 355.382812 250.117188 354.335938 252.835938 353.21875 255.53125 C 352.101562 258.222656 350.921875 260.886719 349.675781 263.523438 C 348.429688 266.160156 347.117188 268.761719 345.746094 271.332031 C 344.371094 273.902344 342.933594 276.441406 341.433594 278.941406 C 339.9375 281.441406 338.378906 283.902344 336.757812 286.328125 C 335.136719 288.75 333.460938 291.132812 331.722656 293.472656 C 329.988281 295.816406 328.195312 298.113281 326.34375 300.367188 C 324.496094 302.621094 322.59375 304.828125 320.632812 306.988281 C 318.675781 309.148438 316.667969 311.257812 314.605469 313.320312 C 312.542969 315.378906 310.433594 317.390625 308.273438 319.347656 C 306.113281 321.304688 303.90625 323.207031 301.652344 325.058594 C 299.398438 326.90625 297.101562 328.699219 294.761719 330.4375 C 292.421875 332.171875 290.039062 333.851562 287.613281 335.472656 C 285.191406 337.089844 282.726562 338.648438 280.226562 340.148438 C 277.726562 341.648438 275.191406 343.082031 272.621094 344.457031 C 270.050781 345.832031 267.445312 347.140625 264.8125 348.386719 C 262.175781 349.636719 259.511719 350.816406 256.816406 351.929688 C 254.125 353.046875 251.40625 354.097656 248.660156 355.078125 C 245.917969 356.058594 243.148438 356.972656 240.359375 357.820312 C 237.570312 358.667969 234.761719 359.445312 231.933594 360.152344 C 229.105469 360.859375 226.261719 361.5 223.402344 362.066406 C 220.542969 362.636719 217.671875 363.136719 214.789062 363.5625 C 211.90625 363.992188 209.011719 364.347656 206.113281 364.632812 C 203.210938 364.917969 200.304688 365.132812 197.394531 365.277344 C 194.480469 365.417969 191.566406 365.492188 188.652344 365.492188 C 185.738281 365.492188 182.824219 365.417969 179.914062 365.277344 C 177 365.132812 174.09375 364.917969 171.191406 364.632812 C 168.292969 364.347656 165.398438 363.992188 162.515625 363.5625 C 159.632812 363.136719 156.761719 362.636719 153.902344 362.066406 C 151.042969 361.5 148.199219 360.859375 145.371094 360.152344 C 142.542969 359.445312 139.734375 358.667969 136.945312 357.820312 C 134.15625 356.972656 131.390625 356.058594 128.644531 355.078125 C 125.898438 354.097656 123.179688 353.046875 120.488281 351.929688 C 117.792969 350.816406 115.128906 349.636719 112.496094 348.386719 C 109.859375 347.140625 107.257812 345.832031 104.683594 344.457031 C 102.113281 343.082031 99.578125 341.648438 97.078125 340.148438 C 94.578125 338.648438 92.117188 337.089844 89.691406 335.472656 C 87.269531 333.851562 84.886719 332.171875 82.542969 330.4375 C 80.203125 328.699219 77.90625 326.90625 75.652344 325.058594 C 73.398438 323.207031 71.191406 321.304688 69.03125 319.347656 C 66.871094 317.390625 64.761719 315.378906 62.699219 313.320312 C 60.636719 311.257812 58.628906 309.148438 56.671875 306.988281 C 54.714844 304.828125 52.808594 302.621094 50.960938 300.367188 C 49.109375 298.113281 47.316406 295.816406 45.582031 293.472656 C 43.84375 291.132812 42.167969 288.75 40.546875 286.328125 C 38.925781 283.902344 37.367188 281.441406 35.871094 278.941406 C 34.371094 276.441406 32.933594 273.902344 31.558594 271.332031 C 30.1875 268.761719 28.875 266.160156 27.628906 263.523438 C 26.382812 260.886719 25.203125 258.222656 24.085938 255.53125 C 22.972656 252.835938 21.921875 250.117188 20.941406 247.375 C 19.957031 244.628906 19.042969 241.863281 18.199219 239.074219 C 17.351562 236.28125 16.574219 233.472656 15.867188 230.644531 C 15.15625 227.820312 14.519531 224.976562 13.949219 222.117188 C 13.382812 219.257812 12.882812 216.386719 12.457031 213.5 C 12.027344 210.617188 11.671875 207.726562 11.386719 204.824219 C 11.097656 201.921875 10.886719 199.015625 10.742188 196.105469 C 10.597656 193.195312 10.527344 190.28125 10.527344 187.367188 C 10.527344 184.449219 10.597656 181.535156 10.742188 178.625 C 10.886719 175.714844 11.097656 172.808594 11.386719 169.90625 C 11.671875 167.003906 12.027344 164.113281 12.457031 161.230469 C 12.882812 158.34375 13.382812 155.472656 13.949219 152.613281 C 14.519531 149.757812 15.15625 146.914062 15.867188 144.085938 C 16.574219 141.257812 17.351562 138.449219 18.199219 135.660156 C 19.042969 132.867188 19.957031 130.101562 20.941406 127.355469 C 21.921875 124.613281 22.972656 121.894531 24.085938 119.199219 C 25.203125 116.507812 26.382812 113.84375 27.628906 111.207031 C 28.875 108.570312 30.1875 105.96875 31.558594 103.398438 C 32.933594 100.828125 34.371094 98.292969 35.871094 95.792969 C 37.367188 93.289062 38.925781 90.828125 40.546875 88.40625 C 42.167969 85.980469 43.84375 83.597656 45.582031 81.257812 C 47.316406 78.914062 49.109375 76.617188 50.960938 74.363281 C 52.808594 72.109375 54.714844 69.902344 56.671875 67.746094 C 58.628906 65.585938 60.636719 63.472656 62.699219 61.414062 C 64.761719 59.351562 66.871094 57.339844 69.03125 55.382812 C 71.191406 53.425781 73.398438 51.523438 75.652344 49.671875 C 77.90625 47.824219 80.203125 46.03125 82.542969 44.292969 C 84.886719 42.558594 87.269531 40.878906 89.691406 39.261719 C 92.117188 37.640625 94.578125 36.082031 97.078125 34.582031 C 99.578125 33.085938 102.113281 31.648438 104.683594 30.273438 C 107.257812 28.898438 109.859375 27.589844 112.496094 26.34375 C 115.128906 25.097656 117.792969 23.914062 120.488281 22.800781 C 123.179688 21.683594 125.898438 20.636719 128.644531 19.652344 C 131.390625 18.671875 134.15625 17.757812 136.945312 16.910156 C 139.734375 16.0625 142.542969 15.285156 145.371094 14.578125 C 148.199219 13.871094 151.042969 13.230469 153.902344 12.664062 C 156.761719 12.09375 159.632812 11.597656 162.515625 11.167969 C 165.398438 10.742188 168.292969 10.382812 171.191406 10.097656 C 174.09375 9.8125 177 9.597656 179.914062 9.457031 C 182.824219 9.3125 185.738281 9.242188 188.652344 9.242188 C 191.566406 9.242188 194.480469 9.3125 197.394531 9.457031 C 200.304688 9.597656 203.210938 9.8125 206.113281 10.097656 C 209.011719 10.382812 211.90625 10.742188 214.789062 11.167969 C 217.671875 11.597656 220.542969 12.09375 223.402344 12.664062 C 226.261719 13.230469 229.105469 13.871094 231.933594 14.578125 C 234.761719 15.285156 237.570312 16.0625 240.359375 16.910156 C 243.148438 17.757812 245.917969 18.671875 248.660156 19.652344 C 251.40625 20.636719 254.125 21.683594 256.816406 22.800781 C 259.511719 23.914062 262.175781 25.097656 264.8125 26.34375 C 267.445312 27.589844 270.050781 28.898438 272.621094 30.273438 C 275.191406 31.648438 277.726562 33.085938 280.226562 34.582031 C 282.726562 36.082031 285.191406 37.640625 287.613281 39.261719 C 290.039062 40.878906 292.421875 42.558594 294.761719 44.292969 C 297.101562 46.03125 299.398438 47.824219 301.652344 49.671875 C 303.90625 51.523438 306.113281 53.425781 308.273438 55.382812 C 310.433594 57.339844 312.542969 59.351562 314.605469 61.414062 C 316.667969 63.472656 318.675781 65.585938 320.632812 67.746094 C 322.59375 69.902344 324.496094 72.109375 326.34375 74.363281 C 328.195312 76.617188 329.988281 78.914062 331.722656 81.257812 C 333.460938 83.597656 335.136719 85.980469 336.757812 88.40625 C 338.378906 90.828125 339.9375 93.289062 341.433594 95.792969 C 342.933594 98.292969 344.371094 100.828125 345.746094 103.398438 C 347.117188 105.96875 348.429688 108.570312 349.675781 111.207031 C 350.921875 113.84375 352.101562 116.507812 353.21875 119.199219 C 354.335938 121.894531 355.382812 124.613281 356.363281 127.355469 C 357.347656 130.101562 358.261719 132.867188 359.109375 135.660156 C 359.953125 138.449219 360.730469 141.257812 361.4375 144.085938 C 362.148438 146.914062 362.785156 149.757812 363.355469 152.613281 C 363.921875 155.472656 364.421875 158.34375 364.847656 161.230469 C 365.277344 164.113281 365.632812 167.003906 365.917969 169.90625 C 366.207031 172.808594 366.417969 175.714844 366.5625 178.625 C 366.707031 181.535156 366.777344 184.449219 366.777344 187.367188 Z M 366.777344 187.367188 " fill-opacity="1" fill-rule="nonzero"/></g><path fill="#ffffff" d="M 130.613281 212.144531 C 130.074219 212.234375 128.941406 212.632812 128.132812 213.03125 C 125.652344 214.226562 123.890625 216.308594 122.9375 219.171875 C 122.71875 219.824219 122.628906 221.289062 122.539062 225.617188 C 122.414062 231.8125 122.414062 231.847656 121.121094 233.625 C 120.148438 234.945312 119.265625 235.324219 116.625 235.523438 C 108.316406 236.175781 98.765625 233.640625 91.59375 228.878906 C 86.972656 225.816406 82.132812 220.820312 79.5625 216.507812 C 78.824219 215.257812 77.621094 215.023438 76.632812 215.910156 C 75.480469 216.945312 75.824219 217.941406 78.699219 221.832031 C 86 231.6875 97.742188 238.132812 110.1875 239.128906 C 121.136719 240 131.765625 237.117188 140.125 231.035156 C 144.476562 227.847656 147.425781 224.914062 150.234375 220.945312 C 151.941406 218.539062 152.445312 217.558594 152.28125 216.851562 C 152.140625 216.148438 151.238281 215.386719 150.574219 215.386719 C 149.65625 215.386719 149.226562 215.75 148.148438 217.414062 C 147.570312 218.300781 146.726562 219.515625 146.277344 220.078125 C 144.890625 221.816406 142.609375 224.242188 142.445312 224.152344 C 142.375 224.097656 142.300781 223.265625 142.300781 222.304688 C 142.285156 220.167969 142.105469 219.316406 141.296875 217.613281 C 140.179688 215.242188 138.039062 213.359375 135.542969 212.507812 C 134.226562 212.070312 131.980469 211.890625 130.613281 212.144531 Z M 135.199219 216.398438 C 136.277344 216.945312 137.429688 218.085938 138.003906 219.226562 C 138.488281 220.203125 138.632812 221.527344 138.527344 224.351562 C 138.382812 227.664062 138.273438 227.917969 136.207031 229.242188 L 134.660156 230.238281 L 134.570312 225.292969 C 134.515625 222.59375 134.410156 220.222656 134.335938 220.058594 C 133.777344 218.917969 131.566406 218.917969 131.046875 220.058594 C 130.957031 220.222656 130.847656 222.8125 130.792969 225.800781 C 130.6875 232.03125 130.667969 232.175781 129.265625 232.773438 C 128.222656 233.226562 125.523438 234.058594 125.433594 233.949219 C 125.398438 233.914062 125.542969 233.371094 125.777344 232.734375 C 126.15625 231.667969 126.191406 231.214844 126.28125 225.980469 C 126.386719 220.382812 126.386719 220.367188 126.875 219.335938 C 127.628906 217.6875 129.195312 216.363281 130.917969 215.929688 C 132.125 215.621094 134.046875 215.839844 135.199219 216.398438 Z M 135.199219 216.398438 " fill-opacity="1" fill-rule="nonzero"/><g fill="#ffffff" fill-opacity="1"><g transform="translate(37.515504, 202.382131)"><g><path d="M 31.65625 -52.765625 L 31.65625 -40.109375 L 21.1875 -40.109375 C 19.625 -40.109375 18.503906 -39.78125 17.828125 -39.125 C 17.148438 -38.46875 16.8125 -37.488281 16.8125 -36.1875 L 16.8125 -31.0625 L 31.65625 -31.0625 L 31.65625 -18.84375 L 16.8125 -18.84375 L 16.8125 0 L 3.6875 0 L 3.6875 -36.9375 C 3.6875 -39.15625 4.0625 -41.226562 4.8125 -43.15625 C 5.570312 -45.09375 6.617188 -46.773438 7.953125 -48.203125 C 9.285156 -49.640625 10.894531 -50.757812 12.78125 -51.5625 C 14.664062 -52.363281 16.738281 -52.765625 19 -52.765625 Z M 31.65625 -52.765625 "/></g></g></g><g fill="#ffffff" fill-opacity="1"><g transform="translate(70.987559, 202.382131)"><g><path d="M 39.875 -18.3125 C 39.875 -15.75 39.367188 -13.3125 38.359375 -11 C 37.359375 -8.6875 35.988281 -6.640625 34.25 -4.859375 C 32.519531 -3.078125 30.507812 -1.671875 28.21875 -0.640625 C 25.9375 0.390625 23.515625 0.90625 20.953125 0.90625 C 18.390625 0.90625 15.960938 0.390625 13.671875 -0.640625 C 11.390625 -1.671875 9.378906 -3.078125 7.640625 -4.859375 C 5.910156 -6.640625 4.539062 -8.6875 3.53125 -11 C 2.53125 -13.3125 2.03125 -15.75 2.03125 -18.3125 C 2.03125 -20.882812 2.53125 -23.320312 3.53125 -25.625 C 4.539062 -27.9375 5.910156 -29.972656 7.640625 -31.734375 C 9.378906 -33.492188 11.390625 -34.898438 13.671875 -35.953125 C 15.960938 -37.015625 18.390625 -37.546875 20.953125 -37.546875 C 23.566406 -37.546875 26.015625 -37.015625 28.296875 -35.953125 C 30.585938 -34.898438 32.585938 -33.484375 34.296875 -31.703125 C 36.003906 -29.921875 37.359375 -27.875 38.359375 -25.5625 C 39.367188 -23.25 39.875 -20.832031 39.875 -18.3125 Z M 20.953125 -10.546875 C 22.015625 -10.546875 22.992188 -10.757812 23.890625 -11.1875 C 24.796875 -11.625 25.578125 -12.203125 26.234375 -12.921875 C 26.890625 -13.648438 27.390625 -14.476562 27.734375 -15.40625 C 28.085938 -16.34375 28.265625 -17.3125 28.265625 -18.3125 C 28.265625 -19.320312 28.085938 -20.289062 27.734375 -21.21875 C 27.390625 -22.144531 26.898438 -22.972656 26.265625 -23.703125 C 25.640625 -24.429688 24.863281 -25.007812 23.9375 -25.4375 C 23.007812 -25.863281 21.992188 -26.078125 20.890625 -26.078125 C 19.828125 -26.078125 18.851562 -25.863281 17.96875 -25.4375 C 17.09375 -25.007812 16.328125 -24.429688 15.671875 -23.703125 C 15.023438 -22.972656 14.523438 -22.144531 14.171875 -21.21875 C 13.816406 -20.289062 13.640625 -19.320312 13.640625 -18.3125 C 13.640625 -17.3125 13.816406 -16.34375 14.171875 -15.40625 C 14.523438 -14.476562 15.023438 -13.648438 15.671875 -12.921875 C 16.328125 -12.203125 17.109375 -11.625 18.015625 -11.1875 C 18.921875 -10.757812 19.898438 -10.546875 20.953125 -10.546875 Z M 20.953125 -10.546875 "/></g></g></g><g fill="#ffffff" fill-opacity="1"><g transform="translate(112.903024, 202.382131)"><g><path d="M 39.875 -18.3125 C 39.875 -15.75 39.367188 -13.3125 38.359375 -11 C 37.359375 -8.6875 35.988281 -6.640625 34.25 -4.859375 C 32.519531 -3.078125 30.507812 -1.671875 28.21875 -0.640625 C 25.9375 0.390625 23.515625 0.90625 20.953125 0.90625 C 18.390625 0.90625 15.960938 0.390625 13.671875 -0.640625 C 11.390625 -1.671875 9.378906 -3.078125 7.640625 -4.859375 C 5.910156 -6.640625 4.539062 -8.6875 3.53125 -11 C 2.53125 -13.3125 2.03125 -15.75 2.03125 -18.3125 C 2.03125 -20.882812 2.53125 -23.320312 3.53125 -25.625 C 4.539062 -27.9375 5.910156 -29.972656 7.640625 -31.734375 C 9.378906 -33.492188 11.390625 -34.898438 13.671875 -35.953125 C 15.960938 -37.015625 18.390625 -37.546875 20.953125 -37.546875 C 23.566406 -37.546875 26.015625 -37.015625 28.296875 -35.953125 C 30.585938 -34.898438 32.585938 -33.484375 34.296875 -31.703125 C 36.003906 -29.921875 37.359375 -27.875 38.359375 -25.5625 C 39.367188 -23.25 39.875 -20.832031 39.875 -18.3125 Z M 20.953125 -10.546875 C 22.015625 -10.546875 22.992188 -10.757812 23.890625 -11.1875 C 24.796875 -11.625 25.578125 -12.203125 26.234375 -12.921875 C 26.890625 -13.648438 27.390625 -14.476562 27.734375 -15.40625 C 28.085938 -16.34375 28.265625 -17.3125 28.265625 -18.3125 C 28.265625 -19.320312 28.085938 -20.289062 27.734375 -21.21875 C 27.390625 -22.144531 26.898438 -22.972656 26.265625 -23.703125 C 25.640625 -24.429688 24.863281 -25.007812 23.9375 -25.4375 C 23.007812 -25.863281 21.992188 -26.078125 20.890625 -26.078125 C 19.828125 -26.078125 18.851562 -25.863281 17.96875 -25.4375 C 17.09375 -25.007812 16.328125 -24.429688 15.671875 -23.703125 C 15.023438 -22.972656 14.523438 -22.144531 14.171875 -21.21875 C 13.816406 -20.289062 13.640625 -19.320312 13.640625 -18.3125 C 13.640625 -17.3125 13.816406 -16.34375 14.171875 -15.40625 C 14.523438 -14.476562 15.023438 -13.648438 15.671875 -12.921875 C 16.328125 -12.203125 17.109375 -11.625 18.015625 -11.1875 C 18.921875 -10.757812 19.898438 -10.546875 20.953125 -10.546875 Z M 20.953125 -10.546875 "/></g></g></g><g fill="#ffffff" fill-opacity="1"><g transform="translate(154.818488, 202.382131)"><g><path d="M 42.96875 -52.765625 L 42.96875 -16.578125 C 42.96875 -13.972656 42.441406 -11.597656 41.390625 -9.453125 C 40.335938 -7.316406 38.878906 -5.484375 37.015625 -3.953125 C 35.160156 -2.421875 32.960938 -1.226562 30.421875 -0.375 C 27.878906 0.476562 25.128906 0.90625 22.171875 0.90625 C 19.304688 0.90625 16.640625 0.414062 14.171875 -0.5625 C 11.710938 -1.539062 9.578125 -2.894531 7.765625 -4.625 C 5.953125 -6.363281 4.539062 -8.398438 3.53125 -10.734375 C 2.53125 -13.078125 2.03125 -15.628906 2.03125 -18.390625 C 2.03125 -21.304688 2.546875 -23.945312 3.578125 -26.3125 C 4.609375 -28.675781 6.015625 -30.6875 7.796875 -32.34375 C 9.585938 -34 11.675781 -35.28125 14.0625 -36.1875 C 16.445312 -37.09375 18.972656 -37.546875 21.640625 -37.546875 C 22.992188 -37.546875 24.144531 -37.457031 25.09375 -37.28125 C 26.050781 -37.101562 26.832031 -36.890625 27.4375 -36.640625 L 27.4375 -25.484375 C 27.132812 -25.679688 26.566406 -25.90625 25.734375 -26.15625 C 24.910156 -26.40625 23.820312 -26.53125 22.46875 -26.53125 C 21.257812 -26.53125 20.140625 -26.328125 19.109375 -25.921875 C 18.078125 -25.523438 17.195312 -24.960938 16.46875 -24.234375 C 15.738281 -23.503906 15.160156 -22.632812 14.734375 -21.625 C 14.304688 -20.625 14.09375 -19.519531 14.09375 -18.3125 C 14.09375 -15.90625 14.867188 -13.9375 16.421875 -12.40625 C 17.984375 -10.875 19.972656 -10.109375 22.390625 -10.109375 C 23.847656 -10.109375 25.101562 -10.359375 26.15625 -10.859375 C 27.21875 -11.359375 28.097656 -12.035156 28.796875 -12.890625 C 29.503906 -13.742188 30.03125 -14.75 30.375 -15.90625 C 30.726562 -17.0625 30.90625 -18.289062 30.90625 -19.59375 L 30.90625 -52.765625 Z M 42.96875 -52.765625 "/></g></g></g><g fill="#ffffff" fill-opacity="1"><g transform="translate(200.880259, 202.382131)"><g><path d="M 17.34375 -46.8125 C 17.34375 -44.851562 16.675781 -43.21875 15.34375 -41.90625 C 14.007812 -40.601562 12.390625 -39.953125 10.484375 -39.953125 C 8.566406 -39.953125 6.941406 -40.601562 5.609375 -41.90625 C 4.285156 -43.21875 3.625 -44.851562 3.625 -46.8125 C 3.625 -48.769531 4.285156 -50.398438 5.609375 -51.703125 C 6.941406 -53.015625 8.566406 -53.671875 10.484375 -53.671875 C 12.390625 -53.671875 14.007812 -53.015625 15.34375 -51.703125 C 16.675781 -50.398438 17.34375 -48.769531 17.34375 -46.8125 Z M 16.515625 -36.640625 L 16.515625 0 L 4.453125 0 L 4.453125 -36.640625 Z M 16.515625 -36.640625 "/></g></g></g><g fill="#ffffff" fill-opacity="1"><g transform="translate(221.837991, 202.382131)"><g><path d="M 20.5 -13.34375 L 15.90625 -20.578125 L 25.78125 -27.0625 C 24.925781 -27.5625 24.117188 -27.898438 23.359375 -28.078125 C 22.609375 -28.253906 21.859375 -28.34375 21.109375 -28.34375 C 19.953125 -28.34375 18.90625 -28.078125 17.96875 -27.546875 C 17.039062 -27.023438 16.238281 -26.320312 15.5625 -25.4375 C 14.882812 -24.5625 14.359375 -23.554688 13.984375 -22.421875 C 13.609375 -21.296875 13.421875 -20.128906 13.421875 -18.921875 C 13.421875 -17.617188 13.644531 -16.410156 14.09375 -15.296875 C 14.550781 -14.191406 15.15625 -13.210938 15.90625 -12.359375 C 16.65625 -11.503906 17.519531 -10.835938 18.5 -10.359375 C 19.488281 -9.890625 20.507812 -9.65625 21.5625 -9.65625 C 23.675781 -9.65625 25.738281 -10.421875 27.75 -11.953125 C 29.757812 -13.484375 31.289062 -15.457031 32.34375 -17.875 L 41.015625 -13.421875 C 40.109375 -11.253906 38.953125 -9.289062 37.546875 -7.53125 C 36.140625 -5.78125 34.554688 -4.273438 32.796875 -3.015625 C 31.035156 -1.753906 29.132812 -0.785156 27.09375 -0.109375 C 25.0625 0.566406 22.941406 0.90625 20.734375 0.90625 C 18.171875 0.90625 15.742188 0.390625 13.453125 -0.640625 C 11.171875 -1.671875 9.160156 -3.078125 7.421875 -4.859375 C 5.691406 -6.640625 4.320312 -8.6875 3.3125 -11 C 2.3125 -13.3125 1.8125 -15.75 1.8125 -18.3125 C 1.8125 -20.882812 2.3125 -23.320312 3.3125 -25.625 C 4.320312 -27.9375 5.691406 -29.972656 7.421875 -31.734375 C 9.160156 -33.492188 11.171875 -34.898438 13.453125 -35.953125 C 15.742188 -37.015625 18.171875 -37.546875 20.734375 -37.546875 C 24.953125 -37.546875 28.503906 -36.488281 31.390625 -34.375 C 34.285156 -32.269531 36.710938 -29.429688 38.671875 -25.859375 Z M 20.5 -13.34375 "/></g></g></g><g fill="#ffffff" fill-opacity="1"><g transform="translate(263.753456, 202.382131)"><g><path d="M 22.46875 -36.640625 C 25.382812 -36.640625 27.617188 -36.109375 29.171875 -35.046875 C 30.734375 -33.992188 31.515625 -32.140625 31.515625 -29.484375 C 31.515625 -28.472656 31.195312 -27.453125 30.5625 -26.421875 C 29.9375 -25.390625 29.375 -24.570312 28.875 -23.96875 L 17.71875 -11 L 31.4375 -11 L 31.4375 0 L 7.609375 0 C 5.503906 0 3.875 -0.585938 2.71875 -1.765625 C 1.5625 -2.953125 0.984375 -4.675781 0.984375 -6.9375 C 0.984375 -8.894531 1.609375 -10.550781 2.859375 -11.90625 L 15.75 -26.078125 L 3.09375 -26.078125 L 3.09375 -36.640625 Z M 22.46875 -36.640625 "/></g></g></g><g fill="#ffffff" fill-opacity="1"><g transform="translate(297.225511, 202.382131)"><g><path d="M 14.625 -36.640625 L 14.625 -15.234375 C 14.625 -13.828125 14.945312 -12.644531 15.59375 -11.6875 C 16.25 -10.726562 17.382812 -10.25 19 -10.25 C 19.90625 -10.25 20.617188 -10.398438 21.140625 -10.703125 C 21.671875 -11.003906 22.070312 -11.414062 22.34375 -11.9375 C 22.625 -12.46875 22.8125 -13.046875 22.90625 -13.671875 C 23.007812 -14.304688 23.0625 -14.976562 23.0625 -15.6875 L 23.0625 -36.640625 L 34.671875 -36.640625 L 34.671875 -12.8125 C 34.671875 -9.59375 33.851562 -6.863281 32.21875 -4.625 C 30.59375 -2.394531 28.195312 -0.753906 25.03125 0.296875 L 25.03125 15.828125 L 12.96875 15.828125 L 12.96875 0.296875 C 6.332031 -1.710938 3.015625 -6.082031 3.015625 -12.8125 L 3.015625 -36.640625 Z M 14.625 -36.640625 "/></g></g></g></svg>